<svg width="330" height="340" viewBox="0 0 330 340" fill="none" xmlns="http://www.w3.org/2000/svg" >
  <style>
    .text {
      font: 20px sans-serif;
      fill: black;
    }
  </style>


<rect width="330" height="340" rx="5" fill="#232323"/>
<rect width="60" height="60" rx="5" transform="translate(9 200)" fill="#44C7FF"/>
<path d="M8.54297 22H6.36328V7.55078L1.99219 9.15625V7.1875L8.20312 4.85547H8.54297V22Z" transform="translate(32 216)" fill="black"/>
<rect width="60" height="60" rx="5" transform="translate(93 200)" fill="#44C7FF"/>
<path d="M12.5977 22H1.41797V20.4414L7.32422 13.8789C8.19922 12.8867 8.80078 12.082 9.12891 11.4648C9.46484 10.8398 9.63281 10.1953 9.63281 9.53125C9.63281 8.64062 9.36328 7.91016 8.82422 7.33984C8.28516 6.76953 7.56641 6.48438 6.66797 6.48438C5.58984 6.48438 4.75 6.79297 4.14844 7.41016C3.55469 8.01953 3.25781 8.87109 3.25781 9.96484H1.08984C1.08984 8.39453 1.59375 7.125 2.60156 6.15625C3.61719 5.1875 4.97266 4.70312 6.66797 4.70312C8.25391 4.70312 9.50781 5.12109 10.4297 5.95703C11.3516 6.78516 11.8125 7.89062 11.8125 9.27344C11.8125 10.9531 10.7422 12.9531 8.60156 15.2734L4.03125 20.2305H12.5977V22Z" transform="translate(116 216)" fill="black"/>
<rect width="60" height="60" rx="5" transform="translate(176 200)" fill="#44C7FF"/>
<path d="M4.57031 12.4141H6.19922C7.22266 12.3984 8.02734 12.1289 8.61328 11.6055C9.19922 11.082 9.49219 10.375 9.49219 9.48438C9.49219 7.48437 8.49609 6.48438 6.50391 6.48438C5.56641 6.48438 4.81641 6.75391 4.25391 7.29297C3.69922 7.82422 3.42188 8.53125 3.42188 9.41406H1.25391C1.25391 8.0625 1.74609 6.94141 2.73047 6.05078C3.72266 5.15234 4.98047 4.70312 6.50391 4.70312C8.11328 4.70312 9.375 5.12891 10.2891 5.98047C11.2031 6.83203 11.6602 8.01562 11.6602 9.53125C11.6602 10.2734 11.418 10.9922 10.9336 11.6875C10.457 12.3828 9.80469 12.9023 8.97656 13.2461C9.91406 13.543 10.6367 14.0352 11.1445 14.7227C11.6602 15.4102 11.918 16.25 11.918 17.2422C11.918 18.7734 11.418 19.9883 10.418 20.8867C9.41797 21.7852 8.11719 22.2344 6.51562 22.2344C4.91406 22.2344 3.60938 21.8008 2.60156 20.9336C1.60156 20.0664 1.10156 18.9219 1.10156 17.5H3.28125C3.28125 18.3984 3.57422 19.1172 4.16016 19.6562C4.74609 20.1953 5.53125 20.4648 6.51562 20.4648C7.5625 20.4648 8.36328 20.1914 8.91797 19.6445C9.47266 19.0977 9.75 18.3125 9.75 17.2891C9.75 16.2969 9.44531 15.5352 8.83594 15.0039C8.22656 14.4727 7.34766 14.1992 6.19922 14.1836H4.57031V12.4141Z" transform="translate(199 216)" fill="black"/>
<rect width="60" height="60" rx="5" transform="translate(9 130)" fill="#44C7FF"/>
<path d="M10.5703 16.2695H12.9375V18.0391H10.5703V22H8.39062V18.0391H0.621094V16.7617L8.26172 4.9375H10.5703V16.2695ZM3.08203 16.2695H8.39062V7.90234L8.13281 8.37109L3.08203 16.2695Z" transform="translate(32 146)" fill="black"/>
<rect width="60" height="60" rx="5" transform="translate(92 130)" fill="#44C7FF"/>
<path d="M2.41406 13.4453L3.28125 4.9375H12.0234V6.94141H5.12109L4.60547 11.5938C5.44141 11.1016 6.39062 10.8555 7.45312 10.8555C9.00781 10.8555 10.2422 11.3711 11.1562 12.4023C12.0703 13.4258 12.5273 14.8125 12.5273 16.5625C12.5273 18.3203 12.0508 19.707 11.0977 20.7227C10.1523 21.7305 8.82812 22.2344 7.125 22.2344C5.61719 22.2344 4.38672 21.8164 3.43359 20.9805C2.48047 20.1445 1.9375 18.9883 1.80469 17.5117H3.85547C3.98828 18.4883 4.33594 19.2266 4.89844 19.7266C5.46094 20.2188 6.20312 20.4648 7.125 20.4648C8.13281 20.4648 8.92188 20.1211 9.49219 19.4336C10.0703 18.7461 10.3594 17.7969 10.3594 16.5859C10.3594 15.4453 10.0469 14.5312 9.42188 13.8438C8.80469 13.1484 7.98047 12.8008 6.94922 12.8008C6.00391 12.8008 5.26172 13.0078 4.72266 13.4219L4.14844 13.8906L2.41406 13.4453Z" transform="translate(115 146)" fill="black"/>
<rect width="60" height="60" rx="5" transform="translate(176 130)" fill="#44C7FF"/>
<path d="M9.92578 4.92578V6.76562H9.52734C7.83984 6.79688 6.49609 7.29687 5.49609 8.26562C4.49609 9.23438 3.91797 10.5977 3.76172 12.3555C4.66016 11.3242 5.88672 10.8086 7.44141 10.8086C8.92578 10.8086 10.1094 11.332 10.9922 12.3789C11.8828 13.4258 12.3281 14.7773 12.3281 16.4336C12.3281 18.1914 11.8477 19.5977 10.8867 20.6523C9.93359 21.707 8.65234 22.2344 7.04297 22.2344C5.41016 22.2344 4.08594 21.6094 3.07031 20.3594C2.05469 19.1016 1.54688 17.4844 1.54688 15.5078V14.6758C1.54688 11.5352 2.21484 9.13672 3.55078 7.48047C4.89453 5.81641 6.89062 4.96484 9.53906 4.92578H9.92578ZM7.07812 12.6133C6.33594 12.6133 5.65234 12.8359 5.02734 13.2812C4.40234 13.7266 3.96875 14.2852 3.72656 14.957V15.7539C3.72656 17.1602 4.04297 18.293 4.67578 19.1523C5.30859 20.0117 6.09766 20.4414 7.04297 20.4414C8.01953 20.4414 8.78516 20.082 9.33984 19.3633C9.90234 18.6445 10.1836 17.7031 10.1836 16.5391C10.1836 15.3672 9.89844 14.4219 9.32812 13.7031C8.76562 12.9766 8.01562 12.6133 7.07812 12.6133Z" transform="translate(199 146)" fill="black"/>
<rect width="60" height="60" rx="5" transform="translate(9 61)" fill="#44C7FF"/>
<path d="M12.4336 6.15625L5.36719 22H3.09375L10.1367 6.71875H0.902344V4.9375H12.4336V6.15625Z" transform="translate(32 77)" fill="black"/>
<rect width="60" height="60" rx="5" transform="translate(92 61)" fill="#44C7FF"/>
<path d="M11.7656 9.39062C11.7656 10.2422 11.5391 11 11.0859 11.6641C10.6406 12.3281 10.0352 12.8477 9.26953 13.2227C10.1602 13.6055 10.8633 14.1641 11.3789 14.8984C11.9023 15.6328 12.1641 16.4648 12.1641 17.3945C12.1641 18.8711 11.6641 20.0469 10.6641 20.9219C9.67188 21.7969 8.36328 22.2344 6.73828 22.2344C5.09766 22.2344 3.78125 21.7969 2.78906 20.9219C1.80469 20.0391 1.3125 18.8633 1.3125 17.3945C1.3125 16.4727 1.5625 15.6406 2.0625 14.8984C2.57031 14.1562 3.26953 13.5938 4.16016 13.2109C3.40234 12.8359 2.80469 12.3164 2.36719 11.6523C1.92969 10.9883 1.71094 10.2344 1.71094 9.39062C1.71094 7.95312 2.17188 6.8125 3.09375 5.96875C4.01562 5.125 5.23047 4.70312 6.73828 4.70312C8.23828 4.70312 9.44922 5.125 10.3711 5.96875C11.3008 6.8125 11.7656 7.95312 11.7656 9.39062ZM9.99609 17.3477C9.99609 16.3945 9.69141 15.6172 9.08203 15.0156C8.48047 14.4141 7.69141 14.1133 6.71484 14.1133C5.73828 14.1133 4.95312 14.4102 4.35938 15.0039C3.77344 15.5977 3.48047 16.3789 3.48047 17.3477C3.48047 18.3164 3.76562 19.0781 4.33594 19.6328C4.91406 20.1875 5.71484 20.4648 6.73828 20.4648C7.75391 20.4648 8.55078 20.1875 9.12891 19.6328C9.70703 19.0703 9.99609 18.3086 9.99609 17.3477ZM6.73828 6.48438C5.88672 6.48438 5.19531 6.75 4.66406 7.28125C4.14062 7.80469 3.87891 8.51953 3.87891 9.42578C3.87891 10.293 4.13672 10.9961 4.65234 11.5352C5.17578 12.0664 5.87109 12.332 6.73828 12.332C7.60547 12.332 8.29688 12.0664 8.8125 11.5352C9.33594 10.9961 9.59766 10.293 9.59766 9.42578C9.59766 8.55859 9.32812 7.85156 8.78906 7.30469C8.25 6.75781 7.56641 6.48438 6.73828 6.48438Z" transform="translate(115 77)" fill="black"/>
<rect width="60" height="60" rx="5" transform="translate(176 61)" fill="#44C7FF"/>
<path d="M9.72656 14.5C9.27344 15.0391 8.73047 15.4727 8.09766 15.8008C7.47266 16.1289 6.78516 16.293 6.03516 16.293C5.05078 16.293 4.19141 16.0508 3.45703 15.5664C2.73047 15.082 2.16797 14.4023 1.76953 13.5273C1.37109 12.6445 1.17188 11.6719 1.17188 10.6094C1.17188 9.46875 1.38672 8.44141 1.81641 7.52734C2.25391 6.61328 2.87109 5.91406 3.66797 5.42969C4.46484 4.94531 5.39453 4.70312 6.45703 4.70312C8.14453 4.70312 9.47266 5.33594 10.4414 6.60156C11.418 7.85937 11.9062 9.57812 11.9062 11.7578V12.3906C11.9062 15.7109 11.25 18.1367 9.9375 19.668C8.625 21.1914 6.64453 21.9727 3.99609 22.0117H3.57422V20.1836H4.03125C5.82031 20.1523 7.19531 19.6875 8.15625 18.7891C9.11719 17.8828 9.64062 16.4531 9.72656 14.5ZM6.38672 14.5C7.11328 14.5 7.78125 14.2773 8.39062 13.832C9.00781 13.3867 9.45703 12.8359 9.73828 12.1797V11.3125C9.73828 9.89062 9.42969 8.73438 8.8125 7.84375C8.19531 6.95312 7.41406 6.50781 6.46875 6.50781C5.51562 6.50781 4.75 6.875 4.17188 7.60938C3.59375 8.33594 3.30469 9.29688 3.30469 10.4922C3.30469 11.6562 3.58203 12.6172 4.13672 13.375C4.69922 14.125 5.44922 14.5 6.38672 14.5Z" transform="translate(199 77)" fill="black"/>
<!-- value display area -->
<rect width="310" height="40" rx="5" transform="translate(9 10)" fill="#44C7FF"/>
<!--  -->
<text
    x="276" y="37"
    class="text">
    hey
  </text>
<!-- '15' in the 'value display area' -->
<!-- <path d="M8.54297 22H6.36328V7.55078L1.99219 9.15625V7.1875L8.20312 4.85547H8.54297V22ZM15.8906 13.4453L16.7578 4.9375H25.5V6.94141H18.5977L18.082 11.5938C18.918 11.1016 19.8672 10.8555 20.9297 10.8555C22.4844 10.8555 23.7188 11.3711 24.6328 12.4023C25.5469 13.4258 26.0039 14.8125 26.0039 16.5625C26.0039 18.3203 25.5273 19.707 24.5742 20.7227C23.6289 21.7305 22.3047 22.2344 20.6016 22.2344C19.0938 22.2344 17.8633 21.8164 16.9102 20.9805C15.957 20.1445 15.4141 18.9883 15.2812 17.5117H17.332C17.4648 18.4883 17.8125 19.2266 18.375 19.7266C18.9375 20.2188 19.6797 20.4648 20.6016 20.4648C21.6094 20.4648 22.3984 20.1211 22.9688 19.4336C23.5469 18.7461 23.8359 17.7969 23.8359 16.5859C23.8359 15.4453 23.5234 14.5312 22.8984 13.8438C22.2812 13.1484 21.457 12.8008 20.4258 12.8008C19.4805 12.8008 18.7383 13.0078 18.1992 13.4219L17.625 13.8906L15.8906 13.4453Z" transform="translate(276 16)" fill="black"/> -->
<rect width="60" height="60" rx="5" transform="translate(9 270)" fill="#44C7FF"/>
<path d="M12.1172 14.7227C12.1172 17.2617 11.6836 19.1484 10.8164 20.3828C9.94922 21.6172 8.59375 22.2344 6.75 22.2344C4.92969 22.2344 3.58203 21.6328 2.70703 20.4297C1.83203 19.2188 1.37891 17.4141 1.34766 15.0156V12.1211C1.34766 9.61328 1.78125 7.75 2.64844 6.53125C3.51562 5.3125 4.875 4.70312 6.72656 4.70312C8.5625 4.70312 9.91406 5.29297 10.7812 6.47266C11.6484 7.64453 12.0938 9.45703 12.1172 11.9102V14.7227ZM9.94922 11.7578C9.94922 9.92188 9.69141 8.58594 9.17578 7.75C8.66016 6.90625 7.84375 6.48438 6.72656 6.48438C5.61719 6.48438 4.80859 6.90234 4.30078 7.73828C3.79297 8.57422 3.53125 9.85938 3.51562 11.5938V15.0625C3.51562 16.9062 3.78125 18.2695 4.3125 19.1523C4.85156 20.0273 5.66406 20.4648 6.75 20.4648C7.82031 20.4648 8.61328 20.0508 9.12891 19.2227C9.65234 18.3945 9.92578 17.0898 9.94922 15.3086V11.7578Z" transform="translate(32 286)" fill="black"/>
<rect width="143" height="60" rx="5" transform="translate(93 271)" fill="#44C7FF"/>
<path d="M11.625 14.1133H4.23047V20.1602H12.8203V22H1.98047V4.9375H12.7031V6.78906H4.23047V12.2734H11.625V14.1133ZM17.332 9.32031L17.4023 10.9141C18.3711 9.69531 19.6367 9.08594 21.1992 9.08594C23.8789 9.08594 25.2305 10.5977 25.2539 13.6211V22H23.0859V13.6094C23.0781 12.6953 22.8672 12.0195 22.4531 11.582C22.0469 11.1445 21.4102 10.9258 20.543 10.9258C19.8398 10.9258 19.2227 11.1133 18.6914 11.4883C18.1602 11.8633 17.7461 12.3555 17.4492 12.9648V22H15.2812V9.32031H17.332ZM31.4648 6.25V9.32031H33.832V10.9961H31.4648V18.8594C31.4648 19.3672 31.5703 19.75 31.7812 20.0078C31.9922 20.2578 32.3516 20.3828 32.8594 20.3828C33.1094 20.3828 33.4531 20.3359 33.8906 20.2422V22C33.3203 22.1562 32.7656 22.2344 32.2266 22.2344C31.2578 22.2344 30.5273 21.9414 30.0352 21.3555C29.543 20.7695 29.2969 19.9375 29.2969 18.8594V10.9961H26.9883V9.32031H29.2969V6.25H31.4648ZM41.6367 22.2344C39.918 22.2344 38.5195 21.6719 37.4414 20.5469C36.3633 19.4141 35.8242 17.9023 35.8242 16.0117V15.6133C35.8242 14.3555 36.0625 13.2344 36.5391 12.25C37.0234 11.2578 37.6953 10.4844 38.5547 9.92969C39.4219 9.36719 40.3594 9.08594 41.3672 9.08594C43.0156 9.08594 44.2969 9.62891 45.2109 10.7148C46.125 11.8008 46.582 13.3555 46.582 15.3789V16.2812H37.9922C38.0234 17.5312 38.3867 18.543 39.082 19.3164C39.7852 20.082 40.6758 20.4648 41.7539 20.4648C42.5195 20.4648 43.168 20.3086 43.6992 19.9961C44.2305 19.6836 44.6953 19.2695 45.0938 18.7539L46.418 19.7852C45.3555 21.418 43.7617 22.2344 41.6367 22.2344ZM41.3672 10.8672C40.4922 10.8672 39.7578 11.1875 39.1641 11.8281C38.5703 12.4609 38.2031 13.3516 38.0625 14.5H44.4141V14.3359C44.3516 13.2344 44.0547 12.3828 43.5234 11.7812C42.9922 11.1719 42.2734 10.8672 41.3672 10.8672ZM55.2305 11.2656C54.9023 11.2109 54.5469 11.1836 54.1641 11.1836C52.7422 11.1836 51.7773 11.7891 51.2695 13V22H49.1016V9.32031H51.2109L51.2461 10.7852C51.957 9.65234 52.9648 9.08594 54.2695 9.08594C54.6914 9.08594 55.0117 9.14062 55.2305 9.25V11.2656Z" transform="translate(137 287)" fill="black"/>
<rect width="60" height="60" rx="5" transform="translate(260 269)" fill="#44C7FF"/>
<path d="M7.85156 12.8477H12.6094V14.8984H7.85156V20.2891H5.67188V14.8984H0.914062V12.8477H5.67188V7.86719H7.85156V12.8477Z" transform="translate(283 285)" fill="black"/>
<rect width="60" height="60" rx="5" transform="translate(260 200)" fill="#44C7FF"/>
<path d="M9.22852 23.4551H0.650391V20.8008H9.22852V23.4551Z" transform="translate(285 208)" fill="black"/>
<rect width="60" height="60" rx="5" transform="translate(261 61)" fill="#44C7FF"/>
<path d="M2.07422 23.4648H0.210938L7.33594 4.9375H9.1875L2.07422 23.4648Z" transform="translate(286 77)" fill="black"/>
<rect width="60" height="60" rx="5" transform="translate(261 130)" fill="#44C7FF"/>
<path d="M3.86719 10.4805L0.328125 9.42578L0.867188 7.65625L4.40625 8.96875L4.30078 4.9375H6.09375L5.97656 9.02734L9.45703 7.73828L9.99609 9.51953L6.39844 10.5859L8.71875 13.7617L7.26562 14.8633L5.08594 11.4883L2.97656 14.7812L1.51172 13.7148L3.86719 10.4805Z" transform="translate(286 146)" fill="black"/>
</svg>
